<svg xmlns="http://www.w3.org/2000/svg" xmlns:xlink="http://www.w3.org/1999/xlink" viewBox="0 0 115.15 105.97"><defs><style>.cls-1{fill:#0f0f0e;}.cls-2{fill:#10100f;}.cls-3{fill:url(#linear-gradient);}.cls-4{fill:url(#linear-gradient-2);}.cls-5{fill:gray;}.cls-6{fill:#8e8e8e;}.cls-7{fill:url(#linear-gradient-3);}.cls-8{fill:url(#linear-gradient-4);}.cls-9{fill:url(#linear-gradient-5);}.cls-10{fill:url(#linear-gradient-6);}.cls-11{fill:url(#linear-gradient-7);}.cls-12{fill:url(#linear-gradient-8);}.cls-13{fill:url(#linear-gradient-9);}.cls-14{fill:#fff;opacity:0.26;}.cls-15{fill:url(#linear-gradient-10);}</style><linearGradient id="linear-gradient" x1="9.88" y1="12.68" x2="35.37" y2="56.83" gradientUnits="userSpaceOnUse"><stop offset="0" stop-color="#333"/><stop offset="0.27" stop-color="#2e2d2d"/><stop offset="0.62" stop-color="#1f1e1d"/><stop offset="1"/></linearGradient><linearGradient id="linear-gradient-2" x1="3.86" y1="47.48" x2="9.98" y2="58.06" xlink:href="#linear-gradient"/><linearGradient id="linear-gradient-3" x1="0.57" y1="54.01" x2="9.45" y2="69.4" xlink:href="#linear-gradient"/><linearGradient id="linear-gradient-4" x1="10.55" y1="62.79" x2="19.43" y2="78.17" xlink:href="#linear-gradient"/><linearGradient id="linear-gradient-5" x1="38.42" y1="83.94" x2="44.53" y2="94.53" xlink:href="#linear-gradient"/><linearGradient id="linear-gradient-6" x1="30.75" y1="80.22" x2="36.86" y2="90.81" xlink:href="#linear-gradient"/><linearGradient id="linear-gradient-7" x1="20.53" y1="71.57" x2="29.42" y2="86.95" xlink:href="#linear-gradient"/><linearGradient id="linear-gradient-8" x1="45.86" y1="87.8" x2="54.75" y2="103.18" xlink:href="#linear-gradient"/><linearGradient id="linear-gradient-9" x1="10.78" y1="46.89" x2="109.78" y2="46.89" gradientUnits="userSpaceOnUse"><stop offset="0" stop-color="#f7f7f7"/><stop offset="0.59" stop-color="#f4f4f4"/><stop offset="0.73" stop-color="#f2f2f2"/></linearGradient><linearGradient id="linear-gradient-10" x1="110.2" y1="88.43" x2="48.72" y2="99.27" gradientUnits="userSpaceOnUse"><stop offset="0"/><stop offset="0.45" stop-color="#020202"/><stop offset="0.7" stop-color="#0a0a0a"/><stop offset="0.89" stop-color="#181818"/><stop offset="1" stop-color="#242424"/></linearGradient></defs><g id="Capa_2" data-name="Capa 2"><g id="Layer_1" data-name="Layer 1"><polygon class="cls-1" points="21.48 7.74 16.07 18.59 13.76 13.53 19.17 2.68 21.48 7.74"/><polygon class="cls-2" points="115.15 68.91 109.74 79.76 104.37 81.1 109.78 70.25 115.15 68.91"/><polygon class="cls-2" points="112.09 75.32 106.68 86.17 101.31 87.51 106.72 76.66 112.09 75.32"/><polygon class="cls-3" points="32.25 44.52 29.95 39.45 27.64 34.39 25.33 29.33 23.03 24.27 20.72 19.21 18.41 14.14 16.11 9.08 10.7 19.93 13 25 15.31 30.06 17.62 35.12 19.92 40.18 22.23 45.24 24.54 50.3 26.84 55.37 29.15 60.43 34.56 49.58 32.25 44.52"/><polygon class="cls-1" points="31.5 55.98 26.09 66.83 23.78 61.77 29.19 50.92 31.5 55.98"/><polygon class="cls-2" points="36.87 54.64 31.46 65.49 26.09 66.83 31.5 55.98 36.87 54.64"/><polygon class="cls-1" points="23.83 52.26 18.42 63.11 16.11 58.04 21.52 47.2 23.83 52.26"/><polygon class="cls-2" points="29.19 50.92 23.78 61.77 18.42 63.11 23.83 52.26 29.19 50.92"/><polygon class="cls-2" points="21.52 47.2 16.11 58.04 10.74 59.38 16.15 48.54 21.52 47.2"/><polygon class="cls-2" points="16.15 48.54 10.74 59.38 5.37 60.73 10.78 49.88 16.15 48.54"/><polygon class="cls-4" points="10.78 49.88 5.37 60.73 3.06 55.66 8.47 44.81 10.78 49.88"/><polygon class="cls-5" points="13.09 54.94 7.68 65.79 5.37 60.73 10.78 49.88 13.09 54.94"/><polygon class="cls-5" points="23.07 63.72 17.66 74.57 15.36 69.51 20.76 58.66 23.07 63.72"/><polygon class="cls-6" points="20.76 58.66 15.36 69.51 9.98 70.85 15.39 60 20.76 58.66"/><polygon class="cls-5" points="15.39 60 9.98 70.85 7.68 65.79 13.09 54.94 15.39 60"/><polygon class="cls-5" points="33.05 72.5 27.64 83.34 25.33 78.28 30.74 67.43 33.05 72.5"/><polygon class="cls-6" points="30.74 67.43 25.33 78.28 19.96 79.62 25.37 68.77 30.74 67.43"/><polygon class="cls-5" points="25.37 68.77 19.96 79.62 17.66 74.57 23.07 63.72 25.37 68.77"/><polygon class="cls-2" points="15.39 60 9.98 70.85 4.61 72.19 10.02 61.34 15.39 60"/><polygon class="cls-7" points="7.72 56.28 5.41 51.22 0 62.07 2.31 67.13 4.61 72.19 10.02 61.34 7.72 56.28"/><polygon class="cls-5" points="58.38 88.72 52.97 99.57 50.66 94.51 56.07 83.66 58.38 88.72"/><polygon class="cls-6" points="56.07 83.66 50.66 94.51 45.29 95.85 50.7 85 56.07 83.66"/><polygon class="cls-5" points="50.7 85 45.29 95.85 42.99 90.79 48.4 79.94 50.7 85"/><polygon class="cls-6" points="48.4 79.94 42.99 90.79 37.62 92.13 43.02 81.28 48.4 79.94"/><polygon class="cls-5" points="43.02 81.28 37.62 92.13 35.31 87.07 40.72 76.22 43.02 81.28"/><polygon class="cls-5" points="35.36 77.56 29.95 88.41 27.64 83.34 33.05 72.5 35.36 77.56"/><polygon class="cls-6" points="40.72 76.22 35.31 87.07 29.95 88.41 35.36 77.56 40.72 76.22"/><polygon class="cls-2" points="25.37 68.77 19.96 79.62 14.59 80.96 20 70.11 25.37 68.77"/><polygon class="cls-8" points="17.7 65.06 15.39 60 9.98 70.85 12.29 75.91 14.59 80.96 20 70.11 17.7 65.06"/><polygon class="cls-2" points="50.7 85 45.29 95.85 39.92 97.19 45.33 86.34 50.7 85"/><polygon class="cls-9" points="45.33 86.34 39.92 97.19 37.62 92.13 43.02 81.28 45.33 86.34"/><polygon class="cls-2" points="43.02 81.28 37.62 92.13 32.26 93.47 37.66 82.62 43.02 81.28"/><polygon class="cls-10" points="37.66 82.62 32.26 93.47 29.95 88.41 35.36 77.56 37.66 82.62"/><polygon class="cls-2" points="35.36 77.56 29.95 88.41 24.58 89.75 29.99 78.9 35.36 77.56"/><polygon class="cls-11" points="27.68 73.83 25.37 68.77 19.96 79.62 22.27 84.68 24.58 89.75 29.99 78.9 27.68 73.83"/><polygon class="cls-12" points="53.01 90.06 50.7 85 45.29 95.85 47.6 100.91 49.91 105.97 55.31 95.13 53.01 90.06"/><polygon class="cls-13" points="32.22 5.06 34.52 10.12 36.83 15.19 39.14 20.25 41.44 25.31 43.75 30.37 46.06 35.43 48.37 40.49 50.67 45.56 56.04 44.22 53.73 39.15 51.43 34.09 49.12 29.03 54.49 27.69 59.86 26.35 62.17 31.41 64.48 36.47 66.78 41.53 72.15 40.19 69.85 35.13 67.54 30.07 72.91 28.73 78.28 27.39 80.59 32.45 82.89 37.51 85.2 42.57 90.57 41.23 88.27 36.17 85.96 31.11 91.33 29.77 93.64 34.83 95.94 39.89 98.25 44.95 100.55 50.01 102.86 55.07 105.17 60.13 107.47 65.19 109.78 70.25 104.41 71.59 99.04 72.94 101.34 78 95.97 79.34 90.6 80.68 85.23 82.02 79.86 83.36 74.49 84.7 69.12 86.04 63.75 87.38 58.38 88.72 56.07 83.66 50.7 85 48.4 79.94 43.02 81.28 40.72 76.22 35.36 77.56 33.05 72.5 30.74 67.43 25.37 68.77 23.07 63.72 20.76 58.66 15.39 60 13.09 54.94 10.78 49.88 16.15 48.54 21.52 47.2 23.83 52.26 29.19 50.92 31.5 55.98 36.87 54.64 39.17 59.7 44.54 58.36 42.24 53.3 39.93 48.24 37.62 43.18 35.32 38.11 33.01 33.05 30.7 27.99 28.4 22.93 26.09 17.87 23.78 12.8 21.48 7.74 26.85 6.4 32.22 5.06"/><polygon points="29.91 0 32.22 5.06 26.85 6.4 21.48 7.74 19.17 2.68 24.54 1.34 29.91 0"/><polygon points="75.97 22.33 78.28 27.39 72.91 28.73 67.54 30.07 69.85 35.13 72.15 40.19 66.78 41.53 64.48 36.47 62.17 31.41 59.86 26.35 65.23 25.01 70.6 23.67 75.97 22.33"/><polygon points="94.39 23.37 96.7 28.43 99.01 33.49 101.31 38.55 103.62 43.61 105.92 48.67 108.23 53.73 110.54 58.79 112.84 63.85 115.15 68.91 109.78 70.25 107.47 65.19 105.17 60.13 102.86 55.07 100.55 50.01 98.25 44.95 95.94 39.89 93.64 34.83 91.33 29.77 85.96 31.11 88.27 36.17 90.57 41.23 85.2 42.57 82.89 37.51 80.59 32.45 78.28 27.39 83.65 26.05 89.02 24.71 94.39 23.37"/><polygon points="37.59 3.72 39.9 8.78 42.2 13.85 44.51 18.91 46.81 23.97 52.19 22.63 57.56 21.29 59.86 26.35 54.49 27.69 49.12 29.03 51.43 34.09 53.73 39.15 56.04 44.22 50.67 45.56 48.37 40.49 46.06 35.43 43.75 30.37 41.44 25.31 39.14 20.25 36.83 15.19 34.52 10.12 32.22 5.06 37.59 3.72"/><polygon points="21.48 7.74 23.78 12.8 26.09 17.87 28.4 22.93 30.7 27.99 33.01 33.05 35.32 38.11 37.62 43.18 39.93 48.24 42.24 53.3 44.54 58.36 39.17 59.7 36.87 54.64 31.5 55.98 29.19 50.92 34.56 49.58 32.25 44.52 29.95 39.45 27.64 34.39 25.33 29.33 23.03 24.27 20.72 19.21 18.41 14.14 16.11 9.08 21.48 7.74"/><polygon points="26.88 45.86 29.19 50.92 23.83 52.26 21.52 47.2 26.88 45.86"/><polygon points="19.21 42.13 21.52 47.2 16.15 48.54 10.78 49.88 8.47 44.81 13.84 43.47 19.21 42.13"/><polygon points="10.78 49.88 13.09 54.94 15.39 60 10.02 61.34 7.72 56.28 5.41 51.22 10.78 49.88"/><polygon points="20.76 58.66 23.07 63.72 25.37 68.77 20 70.11 17.7 65.06 15.39 60 20.76 58.66"/><polygon points="48.4 79.94 50.7 85 45.33 86.34 43.02 81.28 48.4 79.94"/><polygon points="40.72 76.22 43.02 81.28 37.66 82.62 35.36 77.56 40.72 76.22"/><polygon points="30.74 67.43 33.05 72.5 35.36 77.56 29.99 78.9 27.68 73.83 25.37 68.77 30.74 67.43"/><polygon points="109.78 70.25 112.09 75.32 106.72 76.66 109.02 81.72 103.65 83.06 98.28 84.4 92.91 85.74 87.54 87.08 82.17 88.42 76.8 89.76 71.43 91.1 66.06 92.44 60.69 93.78 55.31 95.13 53.01 90.06 50.7 85 56.07 83.66 58.38 88.72 63.75 87.38 69.12 86.04 74.49 84.7 79.86 83.36 85.23 82.02 90.6 80.68 95.97 79.34 101.34 78 99.04 72.94 104.41 71.59 109.78 70.25"/><path class="cls-14" d="M83.39,26.11l-5.11,1.28L76,22.33,70.6,23.67,65.23,25l-5.37,1.34-2.3-5.06-5.37,1.34L46.82,24l-2.31-5.06L42.2,13.84,39.9,8.78,37.59,3.72,32.22,5.06,29.91,0,24.54,1.34,19.17,2.68l2.31,5.06L16.11,9.08l2.3,5.07,2.31,5.06L23,24.27l2.3,5.06,2.31,5.06L30,39.45l2.3,5.07,2.31,5.06-5.37,1.34-2.31-5.06-5.36,1.33-2.31-5.06-5.37,1.34L8.47,44.81l2.31,5.07L5.41,51.22l2.31,5.06L10,61.34,15.39,60l2.31,5.06,2.3,5,5.37-1.34,2.31,5.07L30,78.9l5.37-1.34,2.3,5.06,2.93-.73C50.7,59.9,64.08,40.16,83.39,26.11Z"/><polygon class="cls-15" points="103.65 83.06 98.28 84.4 92.91 85.74 87.54 87.08 82.17 88.42 76.8 89.76 71.43 91.1 66.06 92.44 60.69 93.78 55.31 95.13 49.91 105.97 55.28 104.63 60.65 103.29 66.02 101.95 71.39 100.61 76.76 99.27 82.13 97.93 87.5 96.59 92.87 95.25 98.24 93.91 103.61 92.57 109.02 81.72 103.65 83.06"/></g></g></svg>