<svg xmlns="http://www.w3.org/2000/svg" viewBox="0 0 218 218"><defs><style>.cls-1{fill:#150034;}</style></defs><g id="Layer_2" data-name="Layer 2"><g id="Capa_1" data-name="Capa 1"><path class="cls-1" d="M204.21,55.89a10,10,0,1,0-17.46,9.76,88.88,88.88,0,1,1-45.17-39.5,10,10,0,1,0,7.33-18.61,109,109,0,1,0,55.3,48.35Z"/><path class="cls-1" d="M149.93,107q-12.36-6.87-24.09-14.78Q120,88.32,114.4,84.14c-.91-.67-1.81-1.35-2.71-2L110.25,81l-.47-.36-.11-.09q-2.76-2.15-5.49-4.36Q98,71.13,92,65.76a6.34,6.34,0,0,0-7.38-.91,5.47,5.47,0,0,0-3.73-1.32,6.1,6.1,0,0,0-6,6v79.24a6.06,6.06,0,0,0,6,6,6.43,6.43,0,0,0,4.34-1.92,6,6,0,0,0,6.89.67q23.06-13.26,45.35-27.82,6.27-4.1,12.48-8.31a6.14,6.14,0,0,0,3-5.18A6,6,0,0,0,149.93,107ZM86.87,142.68V77.21a332.93,332.93,0,0,0,43,31.93c1.89,1.17,3.79,2.31,5.7,3.45q-18,11.91-36.56,23Q92.95,139.18,86.87,142.68Z"/></g></g></svg>