<svg xmlns="http://www.w3.org/2000/svg" viewBox="0 0 218 218"><defs><style>.cls-1{fill:#150034;}</style></defs><g id="Layer_2" data-name="Layer 2"><g id="Capa_1" data-name="Capa 1"><path class="cls-1" d="M204.21,55.89a10,10,0,1,0-17.46,9.76,88.88,88.88,0,1,1-45.17-39.5,10,10,0,1,0,7.33-18.61,109,109,0,1,0,55.3,48.35Z"/><path class="cls-1" d="M153.35,81.37c-7.49,3.11-14.9,6.42-22.29,9.76-4,1.82-8,3.64-12.09,5.42-4.32,1.91-7.77,3.39-11.91,5.07l-.48.22L68.14,80.17l40.74-17.84c11,6.62,23.1,11.31,34.44,17.33a4.5,4.5,0,0,0,4.55-7.77c-11.79-6.25-24.38-11.06-35.74-18.09a4.25,4.25,0,0,0-2.73-.56,5.54,5.54,0,0,0-3.08.46L55.28,76c-2.11.93-2.78,4.11-1.69,6a4.35,4.35,0,0,0-.25,1.41l-.21,55.26a4.55,4.55,0,0,0,4.5,4.5l.46-.06a215.62,215.62,0,0,0,23.31,13.1c2.12,1,5,.65,6.16-1.62,1.06-2,.65-5.06-1.62-6.15a218.06,218.06,0,0,1-23.8-13.42l.18-47.85,38.35,21.62v57.85a4.5,4.5,0,0,0,9,0V110.21c8.43-3.43,16.74-7.16,25-10.9,4-1.82,8.05-3.64,12.09-5.42,2.13-.94,4-1.77,5.93-2.58v1c0,2.32,0,4.63-.05,7l-.08,13.65q-.08,12.75-.16,25.49-20,10.84-39.5,22.62a4.5,4.5,0,1,0,4.54,7.77Q138,156.3,159.23,144.9a4.57,4.57,0,0,0,2.19-4.54q.15-25,.31-50.07c0-1.4.16-3,.07-4.47a3.86,3.86,0,0,0,0-2.54c-.65-2-3-3.91-5.24-3.24a4.87,4.87,0,0,0-.66,0A4.45,4.45,0,0,0,153.35,81.37Z"/></g></g></svg>