<svg xmlns="http://www.w3.org/2000/svg" viewBox="0 0 218 218"><defs><style>.cls-1{fill:#150034;}</style></defs><g id="Layer_2" data-name="Layer 2"><g id="Capa_1" data-name="Capa 1"><path class="cls-1" d="M204.21,55.89a10,10,0,1,0-17.46,9.76,88.88,88.88,0,1,1-45.17-39.5,10,10,0,1,0,7.33-18.61,109,109,0,1,0,55.3,48.35Z"/><path class="cls-1" d="M136.61,58.53q-26.31-.9-52.65-.39c-3.85.07-3.87,6.07,0,6q21.71-.42,43.42.12,5.49.13,11,.33l1,0,.47,0c0,1.06,0,5,0,5.24q0,9.36,0,18.71l-2.94-1.06c-1.48-.53-3-1.14-4.52-.39a17.6,17.6,0,0,0-3.44,2.79l-3.48,3q-1.12-.78-2.22-1.59a55.87,55.87,0,0,0-10-6.19c-2-.91-4-1.77-6-2.8a21.44,21.44,0,0,0-5.81-2.48c-2.06-.4-3.62.37-5.38,1.35q-3,1.68-6,3.42c-3.33,2-6.62,4-9.88,6.05q.09-11.87-.08-23.73c-.06-3.86-6.06-3.87-6,0q.16,11.68.09,23.37,0,6-.15,11.93c0,1.82-.07,3.64-.11,5.47a43.92,43.92,0,0,0-.07,5.62,5.09,5.09,0,0,0,2.87,4.25c1.8.86,3.83.73,5.77.74l11.49,0q11.74,0,23.48,0H129c3.88,0,7.88.26,11.74-.06a5.07,5.07,0,0,0,4.46-2.77c.83-1.73.6-3.79.61-5.66,0-4,0-8,0-11.94l0-23.39V69.11a32,32,0,0,0-.16-6C144.82,58.6,140.28,58.66,136.61,58.53ZM79.56,112.31c-.35.08-.13-.2,0,0Zm58.42.06-5.5,0-11,0q-10.74,0-21.49,0l-11,0-5,0-2.5,0c-.44,0-.89,0-1.33,0l-.34,0a23.11,23.11,0,0,0,.05-2.88c.06-2.07.1-4.15.14-6.22.06-3,.09-6,.12-9,3.1-2,6.22-3.94,9.38-5.82,1.84-1.1,3.7-2.17,5.56-3.23,1-.55,1.94-1.1,2.91-1.63a4.08,4.08,0,0,1,2.66-.82c1.93.28,3.78,1.5,5.48,2.39,1.9,1,3.87,1.8,5.82,2.68a55.23,55.23,0,0,1,9.58,6c3.31,2.43,6.69,4.74,10.64,6,1.84.58,2.63-2.31.8-2.89a23,23,0,0,1-4.93-2.28l2.56-2.22c.93-.81,1.83-1.73,2.83-2.45.41-.3.73-.2,1.21,0s1.22.43,1.83.65l3.32,1.2c0,3.49,0,7,0,10.46,0,1.74,0,3.48,0,5.22s-.16,3.33,0,4.94Zm1.81.5h0S139.77,112.89,139.79,112.87Zm0,.06c0,.29-.06.13,0,0Z"/><path class="cls-1" d="M135.75,47.53q-9.69-.36-19.4-.6-19.41-.48-38.82-.5-4.73,0-9.45,0A2.9,2.9,0,0,0,65.22,50a2.92,2.92,0,0,0-3.61,2.84q-.2,39-.4,77.92l-.1,19.72a17.15,17.15,0,0,0,.15,4.75c.6,2,2.38,2.82,4.33,3,3.19.25,6.42.25,9.62.27,13,.09,25.9,0,38.84,0h38.89c1.67,0,3.35-.07,4.66-1.23a6,6,0,0,0,1.81-4.22c.22-3.13,0-6.33.05-9.46q0-9.73,0-19.49,0-19.62,0-39.24,0-9.74,0-19.49c0-3.17,0-6.33,0-9.5a15.3,15.3,0,0,0-.28-4.43,4.52,4.52,0,0,0-4.27-3C148.6,47.81,142.13,47.77,135.75,47.53Zm14.7,104.92H85.88c-4.71,0-9.42,0-14.13-.05l-3.45-.1-1.15-.05c0-.85-.05-1.73,0-2.56l0-3.74.15-28.72q.15-28.59.29-57.18c0-2.42,0-4.83,0-7.25a2.58,2.58,0,0,0,0-.4,4.2,4.2,0,0,0,.51.05q34.33-.18,68.67,1.11,4.73.18,9.44.39l5,.22,2.33.11v1c0,1.25,0,2.5,0,3.75,0,2.42,0,4.83,0,7.25q0,7.13,0,14.25,0,14.37,0,28.74t-.06,28.74c0,4.74,0,9.5,0,14.24a1.34,1.34,0,0,1,0,.19C152.44,152.49,150.63,152.45,150.45,152.45Z"/><path class="cls-1" d="M125.56,79.54a4.42,4.42,0,0,0,1.8-1,6.28,6.28,0,0,0,2-5.24,3.58,3.58,0,0,0-1.7-2.9,4.42,4.42,0,0,0-1.52-.38,7,7,0,0,0-4.69.65l-.54.16a3.77,3.77,0,0,0-2.5,3.18,4.77,4.77,0,0,0,1.48,3.86,6.73,6.73,0,0,0,3.83,1.76A5.06,5.06,0,0,0,125.56,79.54Z"/></g></g></svg>