<svg xmlns="http://www.w3.org/2000/svg" viewBox="0 0 218 218"><defs><style>.cls-1{fill:#150034;}</style></defs><g id="Layer_2" data-name="Layer 2"><g id="Capa_1" data-name="Capa 1"><path class="cls-1" d="M204.21,55.89a10,10,0,1,0-17.46,9.76,88.88,88.88,0,1,1-45.17-39.5,10,10,0,1,0,7.33-18.61,109,109,0,1,0,55.3,48.35Z"/><path class="cls-1" d="M69.44,146.42q1.35-2.21,2.72-4.41,2.72-4.41,5.44-8.82c2-3.29-3.16-6.31-5.18-3L64,143.82c-1.38,2.25-3.84,5-2.29,7.8a7.26,7.26,0,0,0,2.75,2.43q1.67,1,3.36,2.07a229.58,229.58,0,0,0,26.55,13.8c2.37,1,4.75,2.05,7.14,3s4.7,2,7.26,1.73c2.83-.33,4.38-2.31,5.82-4.55s2.91-4.53,4.36-6.79l4.23-6.58c1.33-2.08,3.41-4.45,3.44-7,0-3-2.39-4.42-4.56-5.88s-4.1-2.73-6.18-4a244.6,244.6,0,0,0-29.66-16,3.09,3.09,0,0,0-4.1,1.08,3,3,0,0,0,1.08,4.1q10.52,4.77,20.55,10.5,5,2.86,9.88,6,2.34,1.49,4.64,3a13.23,13.23,0,0,0,2.12,1.49l-.06.1c-2.38,3.24-4.39,6.84-6.56,10.22l-2.91,4.52c-.52.83-1,1.65-1.58,2.47-.23.35-.59,1.18-1,1.39-.9.52-3-.63-3.93-1-1.78-.71-3.54-1.43-5.29-2.19q-5.34-2.29-10.55-4.85-5.83-2.87-11.5-6.06-2.83-1.59-5.62-3.27l-2.77-1.69-.86-.54.21-.33C68.48,148,69,147.19,69.44,146.42Zm51.31,3.72v0C121.1,150.23,120.77,150.32,120.75,150.14Z"/><path class="cls-1" d="M153.54,44.57C139,49,125,55.43,111.18,61.86c-7.26,3.39-14.5,6.83-21.8,10.13q-4.89,2.22-9.83,4.3c-2,.83-3.88,1.68-4.79,3.79s-.55,4.53-.53,6.71q.21,15.27.41,30.52c0,3.86,6,3.87,6,0l-.35-26-.09-6.7c0-.54-.24-1.72.06-2.17-.13.19.72-.24.89-.31,3.43-1.49,6.89-2.94,10.3-4.47,14-6.32,27.83-13.2,42-19.23,4.94-2.1,9.95-4.09,15-5.86q-7.78,12.78-16,25.3-2.46,3.72-5,7.39a12.93,12.93,0,0,1-2.31,3,3.48,3.48,0,0,1-1.59.48,11.63,11.63,0,0,0-3.08.73A8.12,8.12,0,0,0,116,97.54a9.76,9.76,0,0,0,5.88,7.92,12.73,12.73,0,0,0,10.92-.09,9.46,9.46,0,0,0,5.61-8.49c-.07-3.86-6.07-3.87-6,0a4.27,4.27,0,0,0,0,.61,3.44,3.44,0,0,1-.22.71c.21-.48-.64.85-.33.48a5.45,5.45,0,0,1-2.43,1.63,6.33,6.33,0,0,1-5.93-.8,4,4,0,0,1-1.46-2,3.06,3.06,0,0,1,.28-2,1.42,1.42,0,0,1,.63-.65c-.13.07-.6.13.25-.08a8.77,8.77,0,0,1,.86-.18c2-.34,3.65-.65,5.25-2,2-1.75,3.45-4.4,4.94-6.59s3-4.49,4.51-6.76q4.93-7.53,9.69-15.2,4-6.45,8-13c.73,13.51.25,27.06-.06,40.57-.16,7.16-.3,14.32-.25,21.48,0,3.24.09,6.47.23,9.7,0,.78.07,1.56.11,2.33,0,.57.35,1.86.09,2.37.06-.13-.64.35-.67.38-.93.66-1.91,1.27-2.87,1.9L130,145a3.08,3.08,0,0,0-1.08,4.11,3,3,0,0,0,4.11,1.07l20.93-13.87c1.74-1.16,3.52-2.28,5.24-3.48a6.8,6.8,0,0,0,3.3-5.15,39.29,39.29,0,0,0-.19-5.08c-.07-1.67-.12-3.33-.15-5-.32-14.71.36-29.41.55-44.12.11-7.85.1-15.71-.36-23.56a3.07,3.07,0,0,0-3-3,2.72,2.72,0,0,0-.63.08,2.88,2.88,0,0,0-3.21-3A2.64,2.64,0,0,0,153.54,44.57Z"/></g></g></svg>