<svg xmlns="http://www.w3.org/2000/svg" viewBox="0 0 218 218"><defs><style>.cls-1{fill:#150034;}</style></defs><g id="Layer_2" data-name="Layer 2"><g id="Capa_1" data-name="Capa 1"><path class="cls-1" d="M204.21,55.89a10,10,0,1,0-17.46,9.76,88.88,88.88,0,1,1-45.17-39.5,10,10,0,1,0,7.33-18.61,109,109,0,1,0,55.3,48.35Z"/><path class="cls-1" d="M108,63.78c-8-5.69-16.35-11-25.77-13.92a4.53,4.53,0,0,0-5.69,4.34L75.64,134,75.4,156.5a4.54,4.54,0,0,0,6.77,3.88,125.12,125.12,0,0,1,21.34-8.83c2.62,4.89,5.44,9.67,8.5,14.3q2.68,4.05,5.59,8c1.13,1.52,2.17,3.33,3.88,4.26,2.46,1.33,4.85.39,7.13-.76q8.76-4.41,17.17-9.5c1.36-.82,2.75-1.63,4.07-2.51a5.84,5.84,0,0,0,2.3-7.72c-1.35-3-3-6-4.49-8.89q-4.46-8.46-9.38-16.64l20.36-13.12c2.07-1.33,4.69-2.57,6-4.77a7.15,7.15,0,0,0-.61-8,27,27,0,0,0-5.67-5l-5.68-4.3C137.87,85.74,123.08,74.53,108,63.78Zm18.34,106.74Zm29.17-60.25-25,16.12a4.83,4.83,0,0,0-2.2,4.54,4.13,4.13,0,0,0,.55,2.82q4.23,6.92,8.15,14,1.89,3.45,3.71,6.94c.62,1.2,1.24,2.4,1.85,3.61l.36.72-.4.26-3.29,2c-2.06,1.22-4.13,2.41-6.23,3.57s-4.48,2.44-6.75,3.61l-1,.54-.07-.09A180.08,180.08,0,0,1,110,144.52a4.31,4.31,0,0,0-3.09-2.13,4.26,4.26,0,0,0-3.13-.32,144,144,0,0,0-19.27,7.2q.41-36.32.79-72.62l.18-16q2.37,1.08,4.67,2.33c3.46,1.89,6.77,4,10,6.24,7,4.81,13.82,9.91,20.65,15Q131.46,92.09,142,100.1L152.43,108l2.54,1.93Z"/></g></g></svg>